<svg width="70px" height="70px" viewBox="1197 64 70 70" version="1.1" xmlns="http://www.w3.org/2000/svg" xmlns:xlink="http://www.w3.org/1999/xlink">
    <g id="Group-3" stroke="none" stroke-width="1" fill="none" fill-rule="evenodd" transform="translate(1197.000000, 64.000000)">
        <rect id="Rectangle-2-Copy" fill-opacity="0.3" fill="#000000" x="0" y="0" width="70" height="70"></rect>
        <path d="M54.4999716,44.135146 L54.4999716,19.9527758 C54.4999716,18.0527786 52.9450364,16.5 51.0450392,16.5 L26.8648256,16.5 C24.9648284,16.5 23.4098932,18.0527786 23.4098932,19.9527758 L23.4098932,44.135146 C23.4098932,46.0351432 24.9648284,47.5900784 26.8648256,47.5900784 L51.0450392,47.5900784 C52.9450364,47.5900784 54.4999716,46.0351432 54.4999716,44.135146 L54.4999716,44.135146 Z M32.909879,34.6351602 L37.2274662,39.8175588 L43.2725196,32.0450392 L51.0450392,42.4076798 L26.8648256,42.4076798 L32.909879,34.6351602 Z M16.5000284,23.4077082 L16.5000284,51.0450108 C16.5000284,52.945008 18.0549636,54.4977866 19.9549608,54.4977866 L47.5901068,54.4977866 L47.5901068,51.0450108 L19.9549608,51.0450108 L19.9549608,23.4077082 L16.5000284,23.4077082 Z" id="Fill-352" fill="#FFFFFF"></path>
    </g>
</svg>